<svg version="1.0" xmlns="http://www.w3.org/2000/svg" width="66.667" height="58.667" viewBox="0 0 50 44"><path d="M10.4 1.1C6.3 2.3 1.3 8 .5 12.4c-1.2 6.4.9 9.9 12.6 20.9 6.1 5.6 11.4 10.2 11.9 10.2.6 0 5.9-4.6 11.9-10.2 11.7-11 13.8-14.5 12.6-20.9-.8-4.5-5.7-10-10.1-11.4-3.7-1.3-8.6-.6-12.1 1.6-2 1.3-2.6 1.3-4.5 0-3.1-2-8.7-2.7-12.4-1.5zm12.2 5L25 8.3l2.4-2.2c1.3-1.2 4.2-2.5 6.3-2.8C41.3 2.3 47 7.6 47 15.7c0 3.5-.7 4.5-10.6 14C30.6 35.4 25.5 40 25 40s-5.6-4.6-11.4-10.3C3.7 20.2 3 19.2 3 15.7c0-4.8 2.3-9.2 5.8-11.2 3.8-2.1 10.7-1.4 13.8 1.6z" fill="#4f4f4f"/></svg>